<svg width="790" height="492" viewBox="0 0 790 492" fill="none" xmlns="http://www.w3.org/2000/svg">
    <g clip-path="url(#clip0)">
        <path d="M0 491.152H790.008V0.149414H0V491.152Z" fill="#85B43F"/>
        <path d="M271.417 15.5448L271.607 475.85L333.372 475.842L333.212 15.5721L271.417 15.5448ZM147.831 15.4824L148.092 475.866L209.852 475.858L209.621 15.5136L147.831 15.4824ZM395.002 15.6072L395.132 475.835L456.897 475.827L456.802 15.6307L395.002 15.6072ZM24.2515 15.416L24.5726 475.882L86.3325 475.878L86.0415 15.4511L24.2515 15.416ZM642.177 15.7282V475.8L703.927 475.792L703.962 15.7594L642.177 15.7282ZM518.597 15.6697L518.652 475.819L580.407 475.811L580.382 15.7009" fill="#C3D79E"/>
        <path d="M25.907 475.885V15.4238C25.355 15.8531 24.8031 16.2824 24.2511 16.7116H765.746C765.199 16.2824 764.647 15.8531 764.09 15.4238V475.885L765.746 474.598H24.2511C22.1135 474.598 22.1135 477.173 24.2511 477.173H765.746C766.649 477.173 767.402 476.588 767.402 475.885V15.4238C767.402 14.7214 766.649 14.1321 765.746 14.1321H24.2511C23.3479 14.1321 22.5952 14.7214 22.5952 15.4238V475.885C22.5952 477.548 25.907 477.548 25.907 475.885Z" fill="white"/>
        <path d="M396.657 475.885V15.4239C396.657 13.7614 393.34 13.7614 393.34 15.4239V475.885C393.34 477.548 396.657 477.548 396.657 475.885Z" fill="white"/>
        <path d="M723.993 301.892V189.417C723.441 189.847 722.889 190.276 722.337 190.705H765.747C765.195 190.276 764.648 189.847 764.091 189.417V301.892L765.747 300.604H722.337C720.204 300.604 720.204 303.18 722.337 303.18H765.747C766.65 303.18 767.402 302.594 767.402 301.892V189.417C767.402 188.715 766.65 188.13 765.747 188.13H722.337C721.434 188.13 720.681 188.715 720.681 189.417V301.892C720.681 303.554 723.993 303.554 723.993 301.892Z" fill="white"/>
        <path d="M637.154 369.429V121.881C636.602 122.31 636.05 122.739 635.498 123.172H765.747C765.2 122.739 764.648 122.31 764.091 121.881V369.429L765.747 368.141H635.498C633.365 368.141 633.365 370.717 635.498 370.717H765.747C766.655 370.717 767.407 370.131 767.407 369.429V121.881C767.407 121.182 766.655 120.593 765.747 120.593H635.498C634.594 120.593 633.842 121.182 633.842 121.881V369.429C633.842 371.087 637.154 371.087 637.154 369.429Z" fill="white"/>
        <path d="M755.179 477.173H765.746C766.65 477.173 767.407 476.588 767.407 475.885V467.663C767.407 466.964 766.65 466.375 765.746 466.375C758.962 466.375 753.703 470.715 753.523 475.885C753.463 477.548 756.774 477.544 756.835 475.885C756.965 472.108 760.784 468.955 765.746 468.955L764.09 467.663V475.885L765.746 474.598H755.179C753.041 474.598 753.041 477.173 755.179 477.173Z" fill="white"/>
        <path d="M765.747 24.9342C766.65 24.9342 767.402 24.3489 767.402 23.6464V15.4238C767.402 14.7214 766.65 14.1321 765.747 14.1321H755.179C754.291 14.1321 753.498 14.7214 753.523 15.4238C753.704 20.7 758.962 24.7937 765.747 24.9342C767.884 24.9811 767.879 22.4054 765.747 22.3586C760.784 22.2532 756.965 19.2795 756.835 15.4238C756.283 15.8531 755.731 16.2824 755.179 16.7116H765.747C765.195 16.2824 764.648 15.8531 764.091 15.4238V23.6464C764.648 23.2171 765.195 22.7879 765.747 22.3586C763.609 22.3586 763.609 24.9342 765.747 24.9342Z" fill="white"/>
        <path d="M24.2762 466.379H24.2511C23.3479 466.379 22.5952 466.964 22.5952 467.667V475.885C22.5952 476.588 23.3479 477.173 24.2511 477.173H34.8539C35.737 477.173 36.5348 476.588 36.5098 475.885C36.3291 470.605 31.0654 466.519 24.2762 466.379C22.1386 466.332 22.1436 468.908 24.2762 468.954C29.2389 469.056 33.0625 472.026 33.198 475.885C33.7499 475.456 34.3019 475.027 34.8539 474.598H24.2511C24.8031 475.027 25.355 475.456 25.907 475.885V467.667C25.355 468.096 24.8031 468.521 24.2511 468.954H24.2762C26.4138 468.954 26.4138 466.379 24.2762 466.379Z" fill="white"/>
        <path d="M24.2511 24.9342C31.0503 24.9342 36.3291 20.6103 36.5098 15.4238C36.5348 14.7214 35.737 14.1321 34.8539 14.1321H24.2511C23.3479 14.1321 22.5952 14.7214 22.5952 15.4238V23.6464C22.5952 25.3089 25.907 25.3089 25.907 23.6464V15.4238C25.355 15.8531 24.8031 16.2824 24.2511 16.7116H34.8539C34.3019 16.2824 33.7499 15.8531 33.198 15.4238C33.0675 19.221 29.2288 22.3586 24.2511 22.3586C22.1135 22.3586 22.1135 24.9342 24.2511 24.9342Z" fill="white"/>
        <path d="M617 245.652C617.2 263.889 623.778 280.654 635.241 291.825C635.913 292.478 637 292.148 637 290.909V200.403C637 199.16 635.913 198.826 635.241 199.483C623.778 210.654 617.2 227.42 617 245.652C616.984 247.328 619.046 247.328 619.062 245.652C619.255 228.041 625.646 212.086 636.7 201.32C636.113 201.013 635.526 200.71 634.938 200.403V290.909C635.526 290.602 636.113 290.295 636.7 289.988C625.649 279.218 619.255 263.267 619.062 245.652C619.046 243.98 616.984 243.98 617 245.652Z" fill="white"/>
        <path d="M66.0098 189.417V301.892C66.5618 301.463 67.1137 301.033 67.6657 300.604H24.2511C24.8031 301.033 25.355 301.463 25.907 301.892V189.417C25.355 189.847 24.8031 190.276 24.2511 190.705H67.6657C69.8033 190.705 69.8033 188.13 67.6657 188.13H24.2511C23.3479 188.13 22.5952 188.715 22.5952 189.417V301.892C22.5952 302.594 23.3479 303.18 24.2511 303.18H67.6657C68.5689 303.18 69.3216 302.594 69.3216 301.892V189.417C69.3216 187.755 66.0098 187.755 66.0098 189.417Z" fill="white"/>
        <path d="M152.849 121.881V369.429C153.401 369 153.953 368.57 154.505 368.141H24.2511C24.8031 368.57 25.355 369 25.907 369.429V121.881C25.355 122.31 24.8031 122.739 24.2511 123.172H154.505C156.642 123.172 156.642 120.593 154.505 120.593H24.2511C23.3479 120.593 22.5952 121.182 22.5952 121.881V369.429C22.5952 370.131 23.3479 370.717 24.2511 370.717H154.505C155.408 370.717 156.161 370.131 156.161 369.429V121.881C156.161 120.222 152.849 120.222 152.849 121.881Z" fill="white"/>
        <path d="M173 245.652C172.8 227.42 166.225 210.654 154.759 199.483C154.087 198.826 153 199.16 153 200.403V290.909C153 292.148 154.087 292.478 154.759 291.825C166.225 280.654 172.8 263.889 173 245.652C173.016 243.98 170.954 243.98 170.938 245.652C170.745 263.267 164.354 279.218 153.303 289.988C153.89 290.295 154.474 290.602 155.062 290.909V200.403C154.474 200.71 153.89 201.013 153.303 201.32C164.354 212.086 170.745 228.041 170.938 245.652C170.954 247.328 173.016 247.328 173 245.652Z" fill="white"/>
        <path d="M667.773 245.888C667.773 244.376 669 243.146 670.516 243.146C672.031 243.146 673.258 244.376 673.258 245.888C673.258 247.403 672.031 248.634 670.516 248.634C669 248.634 667.773 247.403 667.773 245.888Z" fill="white"/>
        <path d="M667.773 245.888C667.773 244.376 669 243.146 670.516 243.146C672.031 243.146 673.258 244.376 673.258 245.888C673.258 247.403 672.031 248.634 670.516 248.634C669 248.634 667.773 247.403 667.773 245.888Z" stroke="white" stroke-width="1.097"/>
        <path d="M392.754 245.888C392.754 244.376 393.98 243.146 395.496 243.146C397.012 243.146 398.238 244.376 398.238 245.888C398.238 247.407 397.012 248.634 395.496 248.634C393.98 248.634 392.754 247.407 392.754 245.888Z" fill="white"/>
        <path d="M392.754 245.888C392.754 244.376 393.98 243.146 395.496 243.146C397.012 243.146 398.238 244.376 398.238 245.888C398.238 247.407 397.012 248.634 395.496 248.634C393.98 248.634 392.754 247.407 392.754 245.888Z" stroke="white" stroke-width="1.097"/>
        <path d="M119.223 245.888C119.223 247.407 117.992 248.634 116.477 248.634C114.965 248.634 113.734 247.407 113.734 245.888C113.734 244.376 114.965 243.146 116.477 243.146C117.992 243.146 119.223 244.376 119.223 245.888Z" fill="white"/>
        <path d="M119.223 245.888C119.223 247.407 117.992 248.634 116.477 248.634C114.965 248.634 113.734 247.407 113.734 245.888C113.734 244.376 114.965 243.146 116.477 243.146C117.992 243.146 119.223 244.376 119.223 245.888Z" stroke="white" stroke-width="1.097"/>
        <path d="M340.551 245.888C340.852 221.192 357.145 199.751 380.891 192.911C404.746 186.036 430.336 197.212 442.938 218.161C455.762 239.474 451.469 267.22 434.348 284.743C416.981 302.513 389.067 305.477 367.766 293.333C350.844 283.684 340.785 265.149 340.551 245.888C340.528 244.227 337.949 244.227 337.973 245.888C338.235 267.313 349.903 286.661 368.77 296.837C387.758 307.079 411.453 304.954 428.934 292.692C445.981 280.739 455.348 259.216 452.551 238.599C449.684 217.477 435.649 199.903 415.875 192.091C398.113 185.071 377.528 188.239 362.059 199.087C346.875 209.735 338.195 227.513 337.973 245.888C337.949 247.552 340.528 247.552 340.551 245.888Z" fill="white"/>
    </g>
    <defs>
        <clipPath id="clip0">
            <rect width="790" height="491" fill="white" transform="translate(0 0.15332)"/>
        </clipPath>
    </defs>
</svg>
