<?xml version="1.0" encoding="utf-8"?>
<svg width="160.6" height="38" version="1.1" xmlns="http://www.w3.org/2000/svg"  x="0px" y="0px"
     viewBox="0 0 160.6 38" style="enable-background:new 0 0 160.6 38;" xml:space="preserve">
<style type="text/css">
	.st0{fill:#FFFFFF;}
	.st1{fill:#172B4D;}
</style>
<g>
	<path class="st0" d="M100,0h-3H0v38h97.1h3h60.6V0H100z M157.6,35H100V3h57.6V35z"/>
	<path class="st1" d="M11.5,25.8h2.9v-4.1h0.4c1.1,0,2-0.2,2.7-0.5c1.9-0.7,2.6-2.4,2.6-3.8c0-1.8-0.7-3-2.2-3.7c-0.7-0.4-1.8-0.6-2.9-0.6h-3.5
		L11.5,25.8L11.5,25.8z M14.4,19.4v-3.8h0.5c0.6,0,1,0.1,1.3,0.3c0.6,0.4,0.8,0.9,0.8,1.6c0,0.8-0.3,1.4-0.9,1.7
		c-0.4,0.2-0.7,0.2-1.2,0.2L14.4,19.4L14.4,19.4z M22.4,25.8h7.5v-2.5h-4.6v-2.7h4v-2.5h-4v-2.5h3.9l0.7-2.5h-7.6L22.4,25.8
		L22.4,25.8z M44.3,25.8V13.3h-2.9v5.8c0,0.5,0,1.4,0,2l0,0c-0.4-0.6-0.7-1-1.1-1.5l-4.9-6.4h-2.9v12.5h2.9v-6.4
		c0-0.6,0-1.4-0.1-1.8l0,0c0.5,0.6,0.7,1,1.2,1.6l5.1,6.6L44.3,25.8L44.3,25.8z M45.7,25.8h2.9l1.1-2.9h4.1l1.2,2.9h3.1L53,13.3
		h-2.4L45.7,25.8z M50.7,20.6l0.6-1.8c0.4-0.8,0.5-1.4,0.6-1.8l0,0c0.1,0.4,0.3,0.9,0.6,1.8l0.6,1.8L50.7,20.6L50.7,20.6z
		 M59.7,25.8h7.2v-2.5h-4.3v-10h-2.9L59.7,25.8L59.7,25.8z M71.1,25.8H74v-10h3.2l0.7-2.5H67.4v2.5h3.7V25.8z M82.3,25.8h2.9v-4.9
		l4.4-7.7h-3.1l-2.7,5.1l0,0l-2.7-5.1H78l4.3,7.6V25.8z"/>
	<path class="st0" d="M118.3,22.7c-0.9,0.6-1.8,0.9-3.1,0.9c-2.4,0-3.9-1.7-3.9-4c0-2.1,1.2-4.1,3.9-4.1c1.2,0,2.3,0.3,3.3,0.8v-2.7
		c-0.8-0.4-2-0.6-3.4-0.6c-4.2,0-6.9,2.9-6.9,6.5c0,3.7,2.2,6.4,6.5,6.4c1.3,0,2.8-0.2,4.3-1.1L118.3,22.7z M127,26
		c3.8,0,6.5-2.6,6.5-6.5s-2.7-6.5-6.5-6.5c-3.8,0-6.5,2.6-6.5,6.5S123.2,26,127,26z M127,23.6c-1.9,0-3.3-1.4-3.3-4.1
		s1.4-4.1,3.3-4.1s3.3,1.4,3.3,4.1S129,23.6,127,23.6z M135.9,25.8h2.9v-6.5c0-0.4,0-0.8,0-1.3l0,0c0.3,0.5,0.6,0.8,0.8,1.2l2.3,3.2
		h1.3l2-3c0.2-0.4,0.7-1.1,0.8-1.3l0,0c0,0.4,0,0.9,0,1.4v6.4h2.9V13.3h-2.7l-2.9,4.2c-0.4,0.6-0.6,1.1-0.9,1.6l0,0
		c-0.3-0.5-0.6-0.9-1-1.5l-3.1-4.3h-2.6L135.9,25.8L135.9,25.8z"/>
</g>
</svg>
