<svg width="256" height="256" viewBox="0 0 256 256" fill="none" xmlns="http://www.w3.org/2000/svg">
<g clip-path="url(#clip0_101:16)">
<rect width="256" height="256" fill="#E38C25"/>
<path d="M164.5 293L164.5 -23L-5 -14L-47 234L44 311L164.5 293Z" fill="black"/>
<path d="M16.5263 140.04H21.5591V132.925H22.2532C24.1622 132.925 25.7241 132.578 26.9389 132.057C30.2362 130.842 31.451 127.892 31.451 125.462C31.451 122.339 30.2362 120.256 27.6331 119.041C26.4183 118.347 24.5093 118 22.6003 118H16.5263V140.04ZM21.5591 128.933V122.339H22.4268C23.468 122.339 24.1622 122.512 24.6828 122.859C25.7241 123.553 26.0712 124.421 26.0712 125.636C26.0712 127.024 25.5506 128.066 24.5093 128.586C23.8151 128.933 23.2945 128.933 22.4268 128.933H21.5591ZM35.4425 140.04H48.4583V135.701H40.4753V131.016H47.417V126.677H40.4753V122.339H47.2435L48.4583 118H35.269L35.4425 140.04ZM73.4485 140.04V118.347H68.4157V128.413C68.4157 129.28 68.4157 130.842 68.4157 131.883C67.7216 130.842 67.2009 130.148 66.5068 129.28L58.0031 118.174H52.9704V139.866H58.0031V128.76C58.0031 127.718 58.0031 126.33 57.8296 125.636C58.6973 126.677 59.0444 127.371 59.9121 128.413L68.7628 139.866L73.4485 140.04ZM75.8781 140.04H80.9109L82.8198 135.007H89.9351L92.0176 140.04H97.3975L88.5468 118.347H84.3817L75.8781 140.04ZM84.5553 131.016L85.5965 127.892C86.2907 126.504 86.4642 125.462 86.6378 124.768C86.8113 125.462 87.1584 126.33 87.679 127.892L88.7203 131.016H84.5553ZM100.174 140.04H112.669V135.701H105.207V118.347H100.174V140.04ZM119.958 140.04H124.991V122.686H130.544L131.759 118.347H113.537V122.686H119.958V140.04ZM139.395 140.04H144.428V131.536L152.064 118.174H146.684L141.998 127.024L137.312 118.174H131.933L139.395 131.363V140.04Z" fill="white"/>
<path d="M191.092 134.729C189.54 135.764 187.988 136.281 185.746 136.281C181.607 136.281 179.02 133.349 179.02 129.382C179.02 125.761 181.09 122.312 185.746 122.312C187.816 122.312 189.713 122.829 191.437 123.691V119.035C190.058 118.345 187.988 118 185.574 118C178.33 118 173.674 123.001 173.674 129.21C173.674 135.591 177.468 140.248 184.884 140.248C187.126 140.248 189.713 139.903 192.3 138.35L191.092 134.729ZM206.096 140.42C212.65 140.42 217.306 135.936 217.306 129.21C217.306 122.484 212.65 118 206.096 118C199.543 118 194.886 122.484 194.886 129.21C194.886 135.936 199.543 140.42 206.096 140.42ZM206.096 136.281C202.82 136.281 200.405 133.866 200.405 129.21C200.405 124.554 202.82 122.139 206.096 122.139C209.373 122.139 211.788 124.554 211.788 129.21C211.788 133.866 209.546 136.281 206.096 136.281ZM221.446 140.075H226.447V128.865C226.447 128.175 226.447 127.485 226.447 126.623C226.964 127.485 227.482 128.003 227.827 128.693L231.793 134.211H234.035L237.484 129.038C237.829 128.348 238.692 127.14 238.864 126.796C238.864 127.485 238.864 128.348 238.864 129.21V140.248H243.866V118.517H239.209L234.208 125.761C233.518 126.796 233.173 127.658 232.656 128.52C232.138 127.658 231.621 126.968 230.931 125.933L225.585 118.517H221.101L221.446 140.075Z" fill="black"/>
</g>
<defs>
<clipPath id="clip0_101:16">
<rect width="256" height="256" fill="white"/>
</clipPath>
</defs>
</svg>